<svg width="50" height="50" viewBox="0 0 50 50" fill="none" xmlns="http://www.w3.org/2000/svg">
<rect width="33" height="30" transform="translate(8 9)" fill="white"/>
<path d="M19.6777 29.834C18.3301 29.834 17.2461 28.75 17.2461 27.4316C17.2461 26.084 18.3301 25 19.6777 25C21.0059 25 22.0801 26.084 22.0801 27.4316C22.0801 28.7598 20.9961 29.834 19.6777 29.834ZM49.2188 25C49.2188 38.3789 38.3789 49.2188 25 49.2188C11.6211 49.2188 0.78125 38.3789 0.78125 25C0.78125 11.6211 11.6211 0.78125 25 0.78125C38.3789 0.78125 49.2188 11.6211 49.2188 25ZM36.2988 20.9766C35.3809 20.9766 34.5703 21.3574 33.9746 21.9531C31.7871 20.4395 28.8379 19.4629 25.5664 19.3555L27.2656 11.709L32.6758 12.9297C32.6758 14.2578 33.7598 15.332 35.0781 15.332C36.4258 15.332 37.5098 14.2285 37.5098 12.9004C37.5098 11.5723 36.4258 10.4687 35.0781 10.4687C34.1309 10.4687 33.3203 11.0352 32.9199 11.8164L26.9434 10.4883C26.6504 10.4102 26.3477 10.625 26.2695 10.918L24.4043 19.3555C21.1621 19.4922 18.2422 20.459 16.0547 21.9727C15.459 21.3477 14.6191 20.9766 13.7012 20.9766C10.293 20.9766 9.17969 25.5566 12.2949 27.1094C12.1875 27.5977 12.1289 28.1055 12.1289 28.623C12.1289 33.7598 17.9102 37.9199 25.0195 37.9199C32.1582 37.9199 37.9395 33.7598 37.9395 28.623C37.9395 28.1055 37.8809 27.5684 37.7539 27.0801C40.8105 25.5176 39.6875 20.9766 36.2988 20.9766V20.9766ZM29.5703 32.3242C27.793 34.1016 22.1387 34.0723 20.4297 32.3242C20.2148 32.1094 19.834 32.1094 19.6191 32.3242C19.375 32.5684 19.375 32.9492 19.6191 33.1641C21.8457 35.3906 28.1445 35.3906 30.3809 33.1641C30.625 32.9492 30.625 32.5684 30.3809 32.3242C30.166 32.1094 29.7852 32.1094 29.5703 32.3242ZM30.3223 25C28.9941 25 27.9199 26.084 27.9199 27.4316C27.9199 28.7598 29.0039 29.834 30.3223 29.834C31.6699 29.834 32.7539 28.75 32.7539 27.4316C32.7539 26.084 31.6797 25 30.3223 25V25Z" fill="#FF4500"/>
</svg>
