<svg width="50" height="50" viewBox="0 0 50 50" fill="none" xmlns="http://www.w3.org/2000/svg">
<path d="M50 0H0V50H50V0Z" fill="#F78422"/>
<path d="M32.4981 17.462C25.7219 10.6858 16.7057 6.95386 7.11057 6.95386V14.0137C14.8199 14.0137 22.0632 17.0112 27.5061 22.4541C32.9489 27.897 35.9465 35.1403 35.9465 42.8497H43.0064C43.0063 33.2546 39.2744 24.2383 32.4981 17.462Z" fill="white"/>
<path d="M7.03738 18.9007V25.9606C16.35 25.9606 23.9265 33.537 23.9265 42.8498H30.9864C30.9864 29.6442 20.243 18.9007 7.03738 18.9007Z" fill="white"/>
<path d="M12.0502 43.046C14.8428 43.046 17.1067 40.7821 17.1067 37.9895C17.1067 35.1969 14.8428 32.933 12.0502 32.933C9.25758 32.933 6.99371 35.1969 6.99371 37.9895C6.99371 40.7821 9.25758 43.046 12.0502 43.046Z" fill="white"/>
</svg>
